# xmcd
#
# Track frame offsets:
#	150
#	25991
#	47917
#	74556
#	102782
#	138010
#	148946
#	171710
#	193647
#	220143
#	244739
#	256510
#	281299
#	303502
#	320528
#
# Disc length: 4442 seconds
#
# Revision: 1
# Processed by: cddbd v1.4PL0 Copyright (c) Steve Scherf et al.
# Submitted via: audiograbber 1.80
#
DISCID=e111580f
DTITLE=Up, Bustle And Out - One Color Just Reflects Another
DYEAR=1900
DGENRE=
TTITLE0=aqui No Mà ?
TTITLE1=The Revolutionary Woman of The Windmill, Part 1 (La Bandolera Del Molin
TTITLE1=o)
TTITLE2=Running Rude ( Featuring Ezra on Percussion )
TTITLE3=Bicycles, Flutes and You
TTITLE4=1 , 2 , 3 , Alto Y Fuera ( Featuring Ezra on Timbales )
TTITLE5=An African Friendship ( Une Amitié Africaine )
TTITLE6=12 penny Apples
TTITLE7=3 Drunk Musicians At Poncho Cafe ( Featuring Marin Genge On Flute)
TTITLE8=The Hands of Contraband
TTITLE9=Mr Pavement Man
TTITLE10=Ninja's Principality
TTITLE11=An Unmarked Grave ( In Memory of Butch Cassidy and The Sundance Kid, 1
TTITLE11=908) Featuring K Byrne on Flam
TTITLE12=Discoursing Drums
TTITLE13=The Revolutionary Woman of the Windmill, Parte Segunda
TTITLE14=Streets of Hyancayo, Peru
EXTD=
EXTT0=
EXTT1=
EXTT2=
EXTT3=
EXTT4=
EXTT5=
EXTT6=
EXTT7=
EXTT8=
EXTT9=
EXTT10=
EXTT11=
EXTT12=
EXTT13=
EXTT14=
PLAYORDER=
